<?xml version="1.0" encoding="utf-8"?>
<!-- Generator: Adobe Illustrator 21.1.0, SVG Export Plug-In . SVG Version: 6.00 Build 0)  -->
<svg version="1.1" id="Capa_1" xmlns="http://www.w3.org/2000/svg" xmlns:xlink="http://www.w3.org/1999/xlink" x="0px" y="0px"
	 viewBox="0 0 500 278" style="enable-background:new 0 0 500 278;" xml:space="preserve">
<style type="text/css">
	.st0{fill:#E6BC22;}
</style>
<g>
	<path d="M67.4,246.7c0.8-0.7,2.4-0.6,3.5,0.3l8.6,8.6c0.3,0.8,0.6,2.4,0,2.9c-7.1,6.8-17.4,11.5-28.3,11.5
		c-22.1,0-40.1-15.8-40.1-40.7c0-23.8,16.7-40.7,40.1-40.7c10.8,0,21.1,4.7,28.3,11.6c0.5,0.8,0.5,2.4-0.2,3.1l-8.8,8.7
		c-0.9,0.7-2.3,0.7-3.1,0c-4.3-4.3-9.9-6.9-16.2-6.9c-14.1,0-22.6,10.3-22.6,24.2c0,14.9,10.2,24.2,22.6,24.2
		C57.4,253.5,63.1,250.9,67.4,246.7"/>
	<path d="M133.8,268.9c-0.7,0-1.9-0.6-2.1-1.1l0.1,0.1l-19-30.3h-3.4V267c0,0.9-0.9,1.9-2.4,1.9H94.5c-1.4,0-2.4-1-2.4-1.9v-43.8
		c0-1,1-2,2.4-2h8.1c-1.5-2.5-3.2-4.7-4.7-7.2l-5.8-9.3v-12.8c0-1,1-2,2.4-2h25.1c0,0,27.5,0,27.5,23.8c0,13.3-8.1,19.2-15.6,21.8
		l19,30.5v-0.1c1,1.5,0,3.1-1.8,3.1H133.8z M121.7,221c3.6-0.2,7.9-1.8,7.9-7.3c0-7.3-7.9-7.3-10.1-7.3h-7.1L121.7,221z"/>
	<path d="M178.5,206v15.1h28.9c1.4,0,2.3,1,2.3,2v12.2c0,0.9-0.9,1.9-2.3,1.9h-28.9v15.1h35.1c1.5,0,2.5,1,2.5,2V267
		c0,0.9-1,1.9-2.5,1.9h-50.1c-1.5,0-2.4-1-2.4-1.9v-75.2c0-1,0.9-2,2.4-2h49.2c1.4,0,2.4,1,2.4,2v12.1c0,1-1,2-2.4,2H178.5z"/>
	<path class="st0" d="M263.8,259.9h-22.6l-2.8,7.8v-0.1c-0.2,0.8-1.2,1.4-2.4,1.4h-13.4c-1.9,0-2.7-1.4-2.1-2.7
		c9.7-24.9,20.2-52,29.9-76.8c0.8-1.7,3.6-1.7,4.4,0l29.9,76.8c0.6,1.4-0.3,2.7-2,2.7H269c-0.9,0-1.9-0.6-2.1-1.4v0.1L263.8,259.9z
		 M245.7,246.2h13.6l-4-11.8c-1.1-3.7-2-7-2.7-11c-0.8,4.2-1.7,7.6-2.8,11L245.7,246.2z"/>
	<path d="M334.3,203.3c0,0.9-1,1.9-2.5,1.9h-13.3V267c0,0.9-1,1.9-2.5,1.9h-12.4c-1.4,0-2.4-1-2.4-1.9v-61.8h-13.4
		c-1.4,0-2.4-1-2.4-1.9v-11.4c0-1,1-2,2.4-2h44.1c1.5,0,2.5,1,2.5,2V203.3z"/>
	<path d="M342.4,192.6c0-1,1-1.9,2.4-1.9h12.3c1.5,0,2.4,0.9,2.4,1.9V267c0,0.9-0.9,1.9-2.4,1.9h-12.3c-1.4,0-2.4-1-2.4-1.9V192.6z"
		/>
	<path d="M428.4,190.7c1.8,0,2.7,1.2,2.1,2.7l-29.5,76.3c-0.8,1.5-3.5,1.5-4.3,0l-29.3-76.3c-0.6-1.4,0.3-2.7,2-2.7h13.2
		c1,0,2,0.6,2.1,1.2c5,13.9,9.2,25.1,14,39c4.6-12.9,9.5-26,14.1-39c0.1-0.7,1.1-1.2,2.1-1.2H428.4z"/>
	<path d="M475,259.9h-22.6l-2.8,7.8v-0.1c-0.2,0.8-1.2,1.4-2.4,1.4h-13.4c-1.9,0-2.7-1.4-2.1-2.7c9.7-24.9,20.2-52,29.9-76.8
		c0.8-1.7,3.6-1.7,4.4,0l29.9,76.8c0.6,1.4-0.3,2.7-2,2.7h-13.7c-0.9,0-1.9-0.6-2.1-1.4v0.1L475,259.9z M456.9,246.2h13.6l-4-11.8
		c-1.1-3.7-2-7-2.7-11c-0.8,4.2-1.7,7.6-2.8,11L456.9,246.2z"/>
	<path d="M265.3,154.7h-44.5l-5.6,15.4v-0.2c-0.4,1.6-2.4,2.7-4.7,2.7H184c-3.8,0-5.3-2.7-4.2-5.3c19.1-49,39.9-102.4,59-151.4
		c1.6-3.3,7.1-3.3,8.7,0l59,151.4c1.1,2.7-0.7,5.3-4,5.3h-26.9c-1.8,0-3.8-1.1-4.2-2.7v0.2L265.3,154.7z M229.7,127.8h26.7
		l-7.8-23.2c-2.2-7.3-4-13.8-5.3-21.6c-1.6,8.2-3.3,14.9-5.6,21.6L229.7,127.8z"/>
	<path d="M320.5,22.2c0-2,2-3.8,4.7-3.8h24.3c2.9,0,4.7,1.8,4.7,3.8v146.5c0,1.8-1.8,3.8-4.7,3.8h-24.3c-2.7,0-4.7-2-4.7-3.8V22.2z"
		/>
	<path d="M454.5,154.7H410l-5.6,15.4v-0.2c-0.4,1.6-2.4,2.7-4.7,2.7h-26.5c-3.8,0-5.3-2.7-4.2-5.3c19.1-49,39.9-102.4,59-151.4
		c1.6-3.3,7.1-3.3,8.7,0l59,151.4c1.1,2.7-0.7,5.3-4,5.3h-26.9c-1.8,0-3.8-1.1-4.2-2.7v0.2L454.5,154.7z M418.9,127.8h26.7
		l-7.8-23.2c-2.2-7.3-4-13.8-5.3-21.6c-1.6,8.2-3.3,14.9-5.6,21.6L418.9,127.8z"/>
	<path d="M57.6,136.3c-0.9-0.7-1.8-1.3-2.7-2c-13.1-10.4-19.9-24-20.2-40.6c0.2-16.4,5.7-29.3,16.7-39.4c1.1-1,2.3-2.1,3.6-3
		c1.3-1,2.6-2,3.9-2.8c8.4-5.5,17.4-8.4,27-8.5c5.1-0.1,10.3,0.6,15.6,2c0.2,0.1,0.4,0.1,0.6,0.1c0.1,0,0.1,0,0.2,0
		c0.2,0,0.3,0,0.5,0.1c0,0,0.1,0,0.1,0c0.2,0,0.3,0,0.5,0c0,0,0.1,0,0.1,0c0.1,0,0.3,0,0.4,0c0,0,0.1,0,0.1,0c0.1,0,0.2-0.1,0.3-0.1
		c0,0,0.1,0,0.1,0c0.1,0,0.3-0.1,0.4-0.2c0,0,0.1,0,0.1-0.1c0.1,0,0.2-0.1,0.3-0.2c0,0,0.1-0.1,0.1-0.1c0.1-0.1,0.2-0.1,0.2-0.2
		c0,0,0.1-0.1,0.1-0.1c0.1-0.1,0.2-0.2,0.3-0.3c0,0,0,0,0,0c0.4-0.4,0.7-1,1-1.6c0.4-0.9,8.4-18.1,9.2-19.8c0.3-0.5,0.5-1,0.6-1.5
		c0,0,0,0,0,0c0.2-0.7,0.3-1.4,0.1-2c0,0,0,0,0,0c0-0.1-0.1-0.2-0.1-0.4c0,0,0,0,0-0.1c0,0,0,0,0-0.1c0-0.1-0.1-0.1-0.1-0.2
		c0-0.1-0.1-0.1-0.1-0.2c-0.1-0.1-0.1-0.2-0.2-0.3c0,0,0-0.1-0.1-0.1c-0.7-0.8-1.7-1.2-2.6-1.5c-12.7-4-25-5.1-37.4-3.4
		c-18,2.5-33.5,9.9-45.9,21.9C9.2,52.3,0.7,77.2,5,105.8c3.8,24.7,16.8,44.3,38.7,58.3c0.7,0.5,1.6,0.9,2.6,0.9c0.3,0,0.6,0,0.8-0.1
		c1.3-0.4,2-1.5,2.5-2.6c2.7-6,5.7-12.5,9.5-20.3C60.3,139.6,59.8,137.9,57.6,136.3"/>
	<path class="st0" d="M168.3,109.2c0-1.1-0.1-2.6-1.2-3.7c-1.1-1.1-2.6-1.2-3.7-1.2c-21.3,0.1-40.5,0.1-58.7,0c-0.4,0-0.9,0-1.4,0.1
		c-0.9,0.2-1.8,0.5-2.5,1.3v0c-0.7,0.8-1,1.8-1.1,3.1c0,0.3,0,0.6,0,0.8c0,0.5,0.1,1.1,0.1,1.7c0.1,0.6,0.1,1.1,0.2,1.7
		c0.3,4.1,0.3,8.4-0.2,12.8c-0.2,1.4-0.2,3.5,1,4.9c1.1,1.2,2.8,1.4,4,1.4c0,0,0,0,0.1,0c1.3,0,2.6,0,3.9,0c3.9,0,7.8,0,11.5,0l0,0
		c0.8,0,1.2,1.1,0.6,1.6c-14,11.3-30.1,14.6-47.7,9.9c-0.6-0.2-1.3-0.4-2-0.7c-0.1,0-0.3-0.1-0.4-0.1c-0.2-0.1-0.3-0.1-0.5-0.2
		c-1.7-0.6-3.4-1.1-4.9-0.3c-1.9,1-2.7,3.1-3.5,5.2c-0.2,0.6-0.5,1.3-0.7,1.8c-2,4.2-3.9,8.3-5.9,12.7c-0.2,0.4-0.4,0.8-0.6,1.2
		l-0.7,1.5c0,0,0,0,0,0c-0.4,0.9-0.9,1.8-1.3,2.8l-0.4,0.8c-0.2,0.5,0,1,0.5,1.2l0.8,0.3c1,0.4,1.9,0.7,2.9,1.1c0,0,0,0,0,0
		c0,0,0.1,0,0.1,0c0.1,0,0.2,0.1,0.3,0.1c0.9,0.3,1.8,0.6,2.7,0.9c0.1,0,0.1,0,0.2,0.1c0.9,0.3,1.9,0.6,2.8,0.9c0.1,0,0.2,0,0.3,0.1
		c0.9,0.3,1.8,0.5,2.7,0.7c0.1,0,0.3,0.1,0.4,0.1c0.9,0.2,1.7,0.4,2.5,0.6c0.2,0,0.4,0.1,0.6,0.1c0.8,0.2,1.6,0.3,2.3,0.5
		c0.3,0.1,0.5,0.1,0.8,0.1c0.7,0.1,1.4,0.3,2.1,0.4c0.3,0.1,0.6,0.1,0.9,0.1c0.6,0.1,1.3,0.2,1.9,0.3c0.4,0,0.7,0.1,1.1,0.1
		c0.6,0.1,1.2,0.1,1.8,0.2c0.4,0,0.8,0.1,1.2,0.1c0.5,0,1.1,0.1,1.6,0.1c0.4,0,0.9,0,1.3,0.1c0.5,0,1,0,1.5,0.1c0.5,0,0.9,0,1.4,0
		c0.5,0,0.9,0,1.4,0c0.5,0,1,0,1.5,0c0.4,0,0.9,0,1.3,0c0.5,0,1,0,1.5-0.1c0.4,0,0.9-0.1,1.3-0.1c0.5,0,1-0.1,1.5-0.1
		c0.4,0,0.9-0.1,1.3-0.1c0.5-0.1,1-0.1,1.4-0.2c0.5-0.1,0.9-0.1,1.4-0.2c0.2,0,0.5-0.1,0.7-0.1c0.2,0,0.5-0.1,0.7-0.1
		c0.2,0,0.4-0.1,0.6-0.1c0.2,0,0.4-0.1,0.7-0.1c0.4-0.1,0.8-0.1,1.1-0.2c0.5-0.1,1-0.2,1.5-0.3c0.3-0.1,0.7-0.2,1-0.2
		c0.5-0.1,1-0.2,1.5-0.4c0.3-0.1,0.6-0.2,1-0.3c0.5-0.1,1.1-0.3,1.6-0.4c0.3-0.1,0.6-0.2,0.9-0.3c0.5-0.2,1.1-0.3,1.6-0.5
		c0.3-0.1,0.6-0.2,0.9-0.3c0.5-0.2,1.1-0.4,1.6-0.6c0.3-0.1,0.6-0.2,0.9-0.3c0.5-0.2,1.1-0.4,1.6-0.6c0.3-0.1,0.6-0.2,0.9-0.4
		c0.5-0.2,1.1-0.5,1.6-0.7c0.3-0.1,0.6-0.3,0.9-0.4c0.5-0.2,1.1-0.5,1.6-0.7c0.3-0.1,0.6-0.3,0.9-0.4c0.5-0.3,1.1-0.5,1.6-0.8
		c0.3-0.2,0.6-0.3,0.9-0.5c0.5-0.3,1-0.6,1.6-0.9c0.3-0.2,0.6-0.3,0.9-0.5c0.5-0.3,1-0.6,1.6-0.9c0.3-0.2,0.6-0.3,0.9-0.5
		c0.5-0.3,1-0.6,1.6-1c0.3-0.2,0.6-0.4,0.9-0.5c0.5-0.3,1.1-0.7,1.6-1c0.3-0.2,0.5-0.4,0.8-0.5c0.6-0.4,1.1-0.8,1.7-1.2
		c0.2-0.2,0.5-0.3,0.7-0.5c0.3-0.2,0.6-0.5,1-0.7c0.6-0.4,1.4,0,1.4,0.7v0c0,4.1,0,8-0.1,11.9c0,1.8,0.4,3.1,1.4,4
		c0.9,0.9,2.2,1.3,4,1.3c0.2,0,0.4,0,0.5,0c5.8-0.3,11.2-0.3,16.2,0c0.6,0,1.4,0,2.2-0.1c0.8-0.2,1.5-0.5,2.2-1.1
		c0.1-0.1,0.2-0.2,0.3-0.4c0.7-0.9,1.1-2,1.1-3.6C168.2,151.9,168.2,131.6,168.3,109.2"/>
	<path class="st0" d="M111.4,41c-0.9,1.8-1.4,4.1,1.8,5.9c5.7,3.1,10.8,7.4,15.4,13c1.1,1.3,3.2,2.3,5.1,2.5
		c0.9,0.1,1.8,0.1,2.7,0.1c0.9,0,1.8,0,2.7,0c1.2,0,2.3,0,3.5,0c1.1,0,2.2,0,3.4,0l4.3,0c2.7,0,5.3,0,8,0c1.7,0,3.6-0.2,4.6-1.7
		c0.1-0.2,0.2-0.4,0.3-0.6c0-0.1,0.1-0.2,0.1-0.3c0.1-0.3,0.1-0.6,0.1-0.9c0-1-0.5-2-0.9-2.9c-7.9-16-20-28.4-35.8-37
		c-0.9-0.5-2.2-1-3.5-0.6c-0.2,0.1-0.3,0.1-0.5,0.2c-1,0.5-1.5,1.5-1.9,2.4c-2.1,4.7-4.1,9-6,13.1C113.6,36.4,112.5,38.7,111.4,41"
		/>
</g>
</svg>
