<?xml version="1.0" encoding="utf-8"?>
<!-- Generator: Adobe Illustrator 21.1.0, SVG Export Plug-In . SVG Version: 6.00 Build 0)  -->
<svg version="1.1" id="Capa_1" xmlns="http://www.w3.org/2000/svg" xmlns:xlink="http://www.w3.org/1999/xlink" x="0px" y="0px"
	 viewBox="0 0 500 500" style="enable-background:new 0 0 500 500;" xml:space="preserve">
<style type="text/css">
	.st0{fill:#D2B53F;}
	.st1{fill:#070308;}
</style>
<g>
	<path class="st0" d="M250,138.6c50.5,0,91.4,40.9,91.4,91.4c0,50.5-40.9,91.4-91.4,91.4c-50.5,0-91.4-40.9-91.4-91.4
		C158.6,179.5,199.5,138.6,250,138.6"/>
	<path class="st1" d="M297.9,426.5h-96.2c-6.7,0-12.2-5.5-12.2-12.2v-5.6c0-6.7,5.5-12.2,12.2-12.2h96.2c6.7,0,12.2,5.5,12.2,12.2
		v5.6C310.1,421.1,304.7,426.5,297.9,426.5"/>
	<path class="st1" d="M297.9,464.9h-96.2c-6.7,0-12.2-5.5-12.2-12.2v-5.6c0-6.7,5.5-12.2,12.2-12.2h96.2c6.7,0,12.2,5.5,12.2,12.2
		v5.6C310.1,459.5,304.7,464.9,297.9,464.9"/>
	<path class="st1" d="M258.5,500h-17.3c-6.7,0-12.2-5.5-12.2-12.2v-5.6c0-6.7,5.5-12.2,12.2-12.2h17.3c6.7,0,12.2,5.5,12.2,12.2v5.6
		C270.7,494.5,265.2,500,258.5,500"/>
	<path class="st0" d="M250,0c-9.2,0-16.6,7.5-16.6,16.6v40.1l1.7-0.2c5-0.5,9.9-0.7,15-0.7c5.1,0,10,0.2,15,0.7l1.7,0.2V16.6
		C266.6,7.5,259.2,0,250,0"/>
	<path class="st0" d="M115.1,119.2l1.1-1.3c6.4-7.7,13.5-14.9,21-21.2l1.3-1.1l-29-29c-3.2-3.2-7.4-4.9-11.8-4.9
		c-4.4,0-8.5,1.8-11.6,4.9c-3.2,3.2-4.9,7.4-4.9,11.8c0,4.4,1.8,8.5,4.9,11.6L115.1,119.2z"/>
	<path class="st0" d="M401.3,61.9c-4.4,0-8.5,1.8-11.6,4.9l-27.8,27.8l1.3,1.1c7.8,6.4,15,13.5,21.2,21l1.1,1.3l27.7-27.7
		c3.2-3.2,4.9-7.4,4.9-11.8c0-4.4-1.8-8.5-4.9-11.6C410,63.7,405.8,61.9,401.3,61.9"/>
	<path class="st0" d="M76.1,242.5c-0.5-4.9-0.7-10-0.7-15c0-5.1,0.2-10,0.7-15l0.2-1.7h-40c-9.2,0-16.6,7.5-16.6,16.6
		c0,9.2,7.5,16.6,16.6,16.6h40L76.1,242.5z"/>
	<path class="st0" d="M384,340.8l-1.1,1.3c-6.2,7.5-13.4,14.5-21.2,21l-1.3,1.1l27.8,27.8c3.2,3.2,7.3,4.9,11.8,4.9c0,0,0.1,0,0.1,0
		c4.4,0,8.5-1.8,11.6-4.9c3.2-3.2,4.9-7.4,4.9-11.8c0-4.4-1.8-8.5-4.9-11.6L384,340.8z"/>
	<path class="st0" d="M115.7,341.7l-1.1-1.3l-29.1,29.1c-3.2,3.2-4.9,7.4-4.9,11.8c0,4.4,1.8,8.5,4.9,11.6c3.2,3.2,7.3,4.9,11.8,4.9
		h0.1c4.4,0,8.5-1.8,11.6-4.9l29-29l-1.3-1.1C128.9,356.3,121.8,349.1,115.7,341.7"/>
	<path class="st0" d="M463.8,210.9h-40.1l0.2,1.7c0.5,5,0.7,9.9,0.7,15c0,5.1-0.2,10-0.7,15l-0.2,1.7h40.1c9.2,0,16.6-7.5,16.6-16.6
		C480.5,218.3,473,210.9,463.8,210.9"/>
	<path class="st1" d="M250,113.2c31.2,0,60.5,12.1,82.5,34.2c22,22,34.2,51.4,34.2,82.5s-12.1,60.5-34.2,82.5
		c-22,22-51.4,34.2-82.5,34.2s-60.5-12.1-82.5-34.2c-22-22-34.2-51.4-34.2-82.5s12.1-60.5,34.2-82.5
		C189.5,125.4,218.8,113.2,250,113.2 M250,77.2c-84.4,0-152.8,68.4-152.8,152.8c0,84.4,68.4,152.8,152.8,152.8
		s152.8-68.4,152.8-152.8C402.8,145.6,334.4,77.2,250,77.2"/>
</g>
</svg>
